<svg width="56" height="40" viewBox="0 0 56 40" fill="none" xmlns="http://www.w3.org/2000/svg">
<g clip-path="url(#clip0_46_685)">
<path fill-rule="evenodd" clip-rule="evenodd" d="M6.0931 0H56V34.1117H52.4727L52.7188 9.08223V8.78473C52.7188 7.72275 52.3766 6.70419 51.7673 5.95273C51.1581 5.20127 50.3316 4.77836 49.4694 4.77687H6.08398V0H6.0931ZM0 8.0943H49.9069V40H0V8.0943Z" fill="#427D2A"/>
<path fill-rule="evenodd" clip-rule="evenodd" d="M41.7996 13.0508C41.8188 14.2401 42.2076 15.3751 42.8859 16.2219C43.5641 17.0688 44.4802 17.5631 45.4454 17.6031V30.2273C44.9287 30.2279 44.4173 30.3556 43.9413 30.603C43.4653 30.8504 43.0341 31.2124 42.6733 31.6679C42.3124 32.1233 42.0291 32.663 41.8399 33.2552C41.6507 33.8474 41.5596 34.4802 41.5717 35.1165H8.39461C8.40962 33.8878 8.0337 32.7007 7.34726 31.809C6.66081 30.9174 5.71834 30.392 4.72144 30.3452V17.721C5.7388 17.7345 6.71896 17.2504 7.44688 16.3748C8.1748 15.4993 8.59103 14.3038 8.60425 13.0508H41.7996Z" fill="#87CC71"/>
<path fill-rule="evenodd" clip-rule="evenodd" d="M18.3568 19.7474C19.067 18.1051 20.1567 16.7591 21.488 15.8796C22.8194 15.0001 24.3326 14.6267 25.8362 14.8065C27.3399 14.9863 28.7665 15.7113 29.9356 16.8898C31.1047 18.0683 31.9638 19.6474 32.4043 21.4273C32.8448 23.2072 32.8468 25.108 32.4102 26.8894C31.9735 28.6707 31.1178 30.2526 29.9512 31.4349C28.7846 32.6172 27.3596 33.3469 25.8564 33.5316C24.3531 33.7163 22.8391 33.3478 21.5059 32.4727C20.6204 31.8922 19.8365 31.1026 19.1989 30.1488C18.5613 29.195 18.0826 28.0957 17.7902 26.9139C17.4977 25.7321 17.3972 24.4909 17.4944 23.2612C17.5917 22.0315 17.8847 20.8375 18.3568 19.7474Z" fill="#427D2A"/>
<path d="M25.1653 31.0862C25.0716 31.0877 24.9786 31.0661 24.8918 31.0226C24.805 30.9792 24.7262 30.9147 24.6599 30.8331C24.5936 30.7515 24.5413 30.6544 24.506 30.5474C24.4707 30.4405 24.4532 30.326 24.4544 30.2106V29.3573C24.0429 29.3287 23.6358 29.2383 23.2422 29.0879C22.9381 28.9635 22.6424 28.8095 22.358 28.6276C22.2609 28.576 22.1739 28.4991 22.1031 28.4023C22.0323 28.3054 21.9793 28.1908 21.9479 28.0663C21.8938 27.8313 21.9034 27.581 21.9752 27.3534C22.0464 27.136 22.1814 26.9596 22.3535 26.8594C22.4555 26.8107 22.5653 26.7914 22.6743 26.8031C22.7833 26.8148 22.8887 26.8571 22.9824 26.9268C23.2353 27.0846 23.4992 27.2142 23.7708 27.3141C24.1739 27.4546 24.5916 27.5208 25.0104 27.5106C25.4124 27.5537 25.8153 27.4419 26.1634 27.1906C26.2697 27.1006 26.3565 26.9799 26.416 26.8389C26.4756 26.698 26.5062 26.5412 26.5052 26.3823C26.5071 26.259 26.4869 26.1366 26.4459 26.0241C26.4049 25.9115 26.3442 25.8115 26.2682 25.7312C26.0182 25.5068 25.727 25.3622 25.4205 25.3102L24.1263 24.9622C22.6953 24.5879 21.9798 23.6524 21.9798 22.1555C21.9737 21.7731 22.0303 21.393 22.1462 21.0381C22.2621 20.6832 22.4349 20.3607 22.6543 20.0899C23.1443 19.5049 23.7767 19.1341 24.4544 19.0346V18.1252C24.4528 18.0111 24.4697 17.8976 24.5042 17.7916C24.5386 17.6856 24.5898 17.5891 24.6549 17.5078C24.7215 17.425 24.8011 17.3598 24.8889 17.3164C24.9767 17.273 25.0708 17.2521 25.1653 17.2552C25.2572 17.2525 25.3484 17.2736 25.4332 17.3171C25.518 17.3606 25.5944 17.4256 25.6575 17.5078C25.7226 17.5891 25.7738 17.6856 25.8083 17.7916C25.8427 17.8976 25.8596 18.0111 25.858 18.1252V18.9953C26.1678 19.0456 26.473 19.1321 26.7695 19.2535C27.0603 19.3701 27.3365 19.5364 27.5898 19.7475C27.675 19.8079 27.7495 19.8887 27.809 19.9851C27.8684 20.0815 27.9117 20.1915 27.9362 20.3088C27.9778 20.5254 27.9586 20.753 27.8815 20.9543C27.8446 21.0538 27.7917 21.1429 27.7258 21.2163C27.66 21.2896 27.5827 21.3457 27.4987 21.3809C27.3914 21.4192 27.2789 21.4295 27.1682 21.4111C27.0576 21.3928 26.9513 21.3461 26.8561 21.2743C26.6343 21.1399 26.4023 21.0327 26.1634 20.9543C25.8656 20.8615 25.5591 20.8181 25.2519 20.8252C24.8739 20.7969 24.4985 20.9189 24.181 21.1732C24.0605 21.271 23.9619 21.4045 23.8942 21.5614C23.8265 21.7183 23.7919 21.8937 23.7936 22.0713C23.7909 22.1929 23.8099 22.3138 23.8493 22.4253C23.8886 22.5368 23.9474 22.6364 24.0215 22.7169C24.26 22.9318 24.5364 23.0741 24.8281 23.1322L26.136 23.4803C26.7564 23.603 27.3334 23.9487 27.7949 24.4738C27.9738 24.7098 28.1129 24.987 28.2045 25.2895C28.296 25.592 28.338 25.9138 28.3281 26.2364C28.3381 26.6145 28.2831 26.9909 28.1669 27.341C28.0507 27.6912 27.8758 28.0072 27.6536 28.2684C27.1632 28.8228 26.5487 29.1827 25.8899 29.3012V30.2106C25.8918 30.3248 25.875 30.4383 25.8405 30.5443C25.8061 30.6504 25.7547 30.7469 25.6894 30.828C25.6265 30.9109 25.5503 30.9767 25.4655 31.0212C25.3807 31.0657 25.2894 31.0878 25.1972 31.0862H25.1653Z" fill="white"/>
</g>
<defs>
<clipPath id="clip0_46_685">
<rect width="56" height="40" fill="white"/>
</clipPath>
</defs>
</svg>
