<svg width="150" height="150" viewBox="0 0 150 150" fill="none" xmlns="http://www.w3.org/2000/svg">
<path d="M70.521 0.195511C69.6828 0.271713 67.7777 0.481232 66.2918 0.633621C52.0608 2.17648 37.9633 8.27177 26.5137 17.8528C24.3039 19.7005 19.465 24.5386 17.6361 26.7291C9.88242 36.0244 4.3958 46.9769 1.93825 58.0818C-0.728857 70.0819 -0.652654 81.4153 2.22401 93.0154C4.2815 101.416 7.57728 108.882 12.4162 116.254C23.3323 132.863 40.5732 144.483 60.1003 148.445C63.2246 149.073 67.3777 149.606 71.626 149.892C75.3599 150.14 79.3225 149.968 84.6186 149.302C106.184 146.559 125.635 134.425 137.58 116.254C142.438 108.863 145.714 101.377 147.772 93.0154C150.953 80.0629 150.725 66.958 147.105 54.3294C144.19 44.1769 139.371 35.1673 132.36 26.7291C130.34 24.2719 125.387 19.4338 122.682 17.2242C112.928 9.26227 101.783 3.96698 89.7623 1.586C86.8094 0.995529 84.9615 0.747894 79.1891 0.176468C76.903 -0.0711517 72.75 -0.0521088 70.521 0.195511Z" fill="#F5F0F2"/>
<path d="M100.796 51.0369C99.9728 49.7242 98.7609 48.6542 97.3017 47.9515C95.8426 47.2488 94.1964 46.9426 92.5552 47.0685C90.9141 47.1943 89.3457 47.7471 88.033 48.6624C86.7204 49.5777 85.7176 50.8176 85.1417 52.2376L78.2281 41.2164C77.404 39.9019 76.1901 38.8305 74.7286 38.1278C73.267 37.425 71.6182 37.1199 69.9751 37.2481C68.332 37.3764 66.7625 37.9327 65.4504 38.852C64.1383 39.7712 63.1378 41.0154 62.566 42.4389C61.4148 40.7638 59.6275 39.5429 57.552 39.0137C55.4766 38.4845 53.2615 38.685 51.3378 39.5761C49.4141 40.4671 47.9194 41.9851 47.1447 43.8345C46.3699 45.6839 46.3706 47.7325 47.1464 49.5815C45.6498 49.6301 44.1922 50.0344 42.9157 50.7552C41.6392 51.476 40.5872 52.4887 39.862 53.6946C39.1369 54.9006 38.7633 56.2588 38.7776 57.6371C38.7919 59.0154 39.1937 60.3668 39.9438 61.5597L42.1209 65.0304C40.4967 64.7794 38.8285 64.9586 37.3109 65.5473C35.7933 66.1359 34.4889 67.1096 33.5498 68.3548C32.6108 69.5999 32.0759 71.0652 32.0075 72.5796C31.9391 74.094 32.3401 75.5951 33.1636 76.9077L47.7678 100.188C50.6219 104.746 54.8322 108.457 59.9022 110.885C64.9722 113.313 70.6908 114.357 76.3838 113.892C82.0768 113.428 87.507 111.476 92.0344 108.265C96.5617 105.055 99.9975 100.72 101.937 95.7721C106.894 91.5047 110.142 85.8219 111.152 79.6442C112.163 73.4664 110.878 67.1555 107.506 61.7336L100.796 51.0369ZM67.9449 40.8077C69.2147 40.1353 70.7223 39.9537 72.1374 40.3027C73.5524 40.6517 74.7593 41.5028 75.4937 42.6695L85.0476 57.8995C83.3564 57.9788 81.7274 58.512 80.3616 59.4332C78.9957 60.3544 77.9526 61.6234 77.361 63.0837L70.4473 52.0625C69.5565 50.6415 68.2093 49.5094 66.591 48.8218L65.9236 47.7576L65.9224 47.7553C65.1913 46.5868 64.9937 45.1991 65.3728 43.8967C65.752 42.5942 66.677 41.4833 67.9449 40.8077ZM49.9071 45.4012C50.19 44.4296 50.7796 43.557 51.6013 42.8938C52.423 42.2307 53.44 41.8066 54.5235 41.6754C55.6071 41.5441 56.7086 41.7115 57.6888 42.1564C58.669 42.6012 59.4838 43.3036 60.0303 44.1747L62.483 48.0848C60.7865 48.1598 59.1518 48.6934 57.783 49.6189C56.4143 50.5444 55.3724 51.8207 54.7875 53.2882C53.9023 51.9977 52.6316 50.9695 51.1276 50.3268L50.4587 49.2606C50.094 48.6828 49.8575 48.0442 49.7628 47.3817C49.6681 46.7193 49.7172 46.0461 49.9071 45.4012ZM87.1668 107.777C81.0001 111.045 73.6767 111.928 66.8033 110.233C59.9298 108.538 54.0675 104.403 50.5022 98.7354L35.898 75.4546C35.5347 74.8762 35.2988 74.2375 35.2038 73.5751C35.1088 72.9127 35.1565 72.2396 35.3442 71.5942C35.5319 70.9488 35.856 70.3437 36.2979 69.8136C36.7397 69.2835 37.2907 68.8387 37.9194 68.5047C38.5481 68.1706 39.2422 67.9538 39.9619 67.8667C40.6817 67.7796 41.413 67.8239 42.1142 67.997C42.8154 68.1701 43.4726 68.4687 44.0483 68.8756C44.6241 69.2826 45.1071 69.79 45.4697 70.3688L54.9427 85.4698C55.0462 85.6354 55.1841 85.7806 55.3486 85.897C55.5131 86.0135 55.7009 86.0989 55.9014 86.1485C56.1018 86.1981 56.3109 86.2108 56.5166 86.1859C56.7224 86.1611 56.9208 86.0991 57.1005 86.0036C57.2803 85.9081 57.4378 85.7809 57.564 85.6293C57.6903 85.4777 57.7829 85.3047 57.8364 85.1202C57.89 84.9356 57.9035 84.7432 57.8761 84.5539C57.8488 84.3645 57.7812 84.182 57.6771 84.0167L42.6782 60.1067C42.3147 59.5282 42.0785 58.8895 41.9833 58.227C41.8881 57.5646 41.9356 56.8913 42.1233 56.2457C42.3109 55.6002 42.6349 54.995 43.0768 54.4648C43.5187 53.9345 44.0698 53.4896 44.6986 53.1555C45.3274 52.8214 46.0215 52.6046 46.7414 52.5175C47.4613 52.4304 48.1928 52.4748 48.894 52.648C49.5953 52.8212 50.2526 53.12 50.8283 53.5271C51.4041 53.9342 51.887 54.4418 52.2495 55.0208L67.2484 78.9309C67.4579 79.2644 67.8027 79.5077 68.207 79.6073C68.6113 79.7069 69.0421 79.6546 69.4046 79.462C69.767 79.2694 70.0316 78.9522 70.14 78.5801C70.2484 78.208 70.1919 77.8115 69.9828 77.4778L58.1416 58.6015C57.778 58.0231 57.5419 57.3843 57.4466 56.7218C57.3514 56.0593 57.399 55.3861 57.5866 54.7405C57.7742 54.0949 58.0983 53.4898 58.5401 52.9595C58.982 52.4293 59.5331 51.9844 60.1619 51.6503C60.7907 51.3161 61.4849 51.0993 62.2048 51.0123C62.9246 50.9252 63.6561 50.9695 64.3574 51.1428C65.0586 51.316 65.7159 51.6147 66.2917 52.0219C66.8674 52.429 67.3503 52.9366 67.7128 53.5156L84.2905 79.9423C84.5 80.2758 84.8448 80.5191 85.2492 80.6187C85.6535 80.7183 86.0843 80.6661 86.4468 80.4734C86.8092 80.2808 87.0738 79.9636 87.1822 79.5915C87.2906 79.2194 87.2341 78.8229 87.025 78.4892L80.7097 68.422C80.1632 67.5509 79.9097 66.5501 79.9811 65.5463C80.0526 64.5426 80.4459 63.5809 81.1112 62.7829C81.7766 61.9849 82.6841 61.3864 83.719 61.0631C84.754 60.7398 85.8698 60.7062 86.9255 60.9666C87.1036 61.0105 87.278 61.062 87.4486 61.121L87.4569 61.1243C88.6487 61.5374 89.6472 62.3193 90.2809 63.336L96.9909 74.0327C100.542 79.7083 101.502 86.4484 99.66 92.7745C97.8183 99.1006 93.3254 104.496 87.1668 107.777ZM103.513 89.7033C104.31 83.7681 102.98 77.7557 99.7254 72.5796L93.0154 61.8829C92.1253 60.4596 90.7771 59.3257 89.1568 58.6378L88.4905 57.576C87.7592 56.4079 87.5617 55.0202 87.9414 53.7182C88.3211 52.4161 89.247 51.3061 90.5155 50.6321C91.784 49.958 93.2914 49.7751 94.7065 50.1235C96.1215 50.4718 97.3283 51.323 98.0618 52.49L104.772 63.1867C107.306 67.2643 108.533 71.9194 108.31 76.6125C108.087 81.3056 106.424 85.8445 103.513 89.7033ZM93.0296 34.691L94.6644 29.0769C94.718 28.8926 94.8106 28.7198 94.9368 28.5685C95.063 28.4171 95.2204 28.2901 95.3999 28.1947C95.5794 28.0993 95.7776 28.0373 95.9832 28.0124C96.1887 27.9875 96.3976 28.0001 96.5978 28.0495C96.7981 28.0989 96.9858 28.1841 97.1503 28.3002C97.3147 28.4164 97.4527 28.5612 97.5564 28.7265C97.66 28.8917 97.7273 29.0741 97.7544 29.2633C97.7814 29.4525 97.7678 29.6447 97.7141 29.829L96.0794 35.4431C96.0258 35.6274 95.9332 35.8003 95.8071 35.9517C95.6809 36.1031 95.5235 36.2302 95.3439 36.3257C95.1644 36.4211 94.9662 36.4831 94.7606 36.508C94.555 36.5329 94.3461 36.5203 94.1458 36.4709C93.9455 36.4215 93.7577 36.3363 93.5932 36.2201C93.4287 36.1039 93.2907 35.959 93.1871 35.7938C93.0834 35.6285 93.0162 35.446 92.9892 35.2568C92.9622 35.0676 92.9759 34.8753 93.0296 34.691ZM103.2 38.4993L106.823 33.7381C106.942 33.5818 107.093 33.4486 107.268 33.346C107.443 33.2435 107.638 33.1737 107.842 33.1405C108.046 33.1074 108.255 33.1116 108.458 33.1529C108.66 33.1942 108.852 33.2718 109.021 33.3812C109.191 33.4906 109.336 33.6298 109.447 33.7907C109.559 33.9516 109.635 34.1312 109.671 34.3191C109.707 34.507 109.702 34.6995 109.657 34.8858C109.612 35.0721 109.528 35.2484 109.409 35.4047L105.787 40.166C105.547 40.4816 105.18 40.6966 104.768 40.7635C104.355 40.8304 103.931 40.7439 103.588 40.5229C103.245 40.3018 103.012 39.9645 102.939 39.585C102.866 39.2055 102.96 38.815 103.2 38.4993ZM118.327 44.3259L113.154 47.6599C112.984 47.7693 112.792 47.8469 112.59 47.8882C112.387 47.9295 112.178 47.9337 111.974 47.9006C111.77 47.8674 111.575 47.7976 111.4 47.6951C111.225 47.5925 111.074 47.4593 110.955 47.303C110.836 47.1467 110.752 46.9704 110.707 46.7841C110.662 46.5978 110.657 46.4052 110.693 46.2173C110.729 46.0294 110.805 45.8499 110.917 45.689C111.028 45.5281 111.173 45.3889 111.343 45.2795L116.516 41.9454C116.686 41.836 116.877 41.7584 117.08 41.7171C117.282 41.6759 117.491 41.6717 117.696 41.7048C117.9 41.7379 118.095 41.8078 118.27 41.9103C118.444 42.0128 118.596 42.146 118.715 42.3023C118.833 42.4586 118.918 42.635 118.963 42.8212C119.007 43.0075 119.012 43.2001 118.976 43.388C118.94 43.5759 118.864 43.7555 118.753 43.9164C118.641 44.0773 118.497 44.2164 118.327 44.3259Z" fill="#555759"/>
</svg>
