<svg width="150" height="150" viewBox="0 0 150 150" fill="none" xmlns="http://www.w3.org/2000/svg">
<path d="M70.521 0.195511C69.6828 0.271713 67.7777 0.481232 66.2918 0.633621C52.0608 2.17648 37.9633 8.27177 26.5137 17.8528C24.3039 19.7005 19.465 24.5386 17.6361 26.7291C9.88242 36.0244 4.3958 46.9769 1.93825 58.0818C-0.728857 70.0819 -0.652654 81.4153 2.22401 93.0154C4.2815 101.416 7.57728 108.882 12.4162 116.254C23.3323 132.863 40.5732 144.483 60.1003 148.445C63.2246 149.073 67.3777 149.606 71.626 149.892C75.3599 150.14 79.3225 149.968 84.6186 149.302C106.184 146.559 125.635 134.425 137.58 116.254C142.438 108.863 145.714 101.377 147.772 93.0154C150.953 80.0629 150.725 66.958 147.105 54.3294C144.19 44.1769 139.371 35.1673 132.36 26.7291C130.34 24.2719 125.387 19.4338 122.682 17.2242C112.928 9.26227 101.783 3.96698 89.7623 1.586C86.8094 0.995529 84.9615 0.747894 79.1891 0.176468C76.903 -0.0711517 72.75 -0.0521088 70.521 0.195511Z" fill="#F5F0F2"/>
<path d="M87.1928 87.4749L85.5699 85.8907C85.0513 85.3844 84.2106 85.3844 83.6924 85.8907C83.1739 86.3968 83.1739 87.2176 83.6924 87.7235L85.3153 89.3076C85.5745 89.5607 85.9143 89.6873 86.254 89.6873C86.5938 89.6873 86.9336 89.5608 87.1928 89.3076C87.7114 88.8017 87.7114 87.9809 87.1928 87.4749Z" fill="black"/>
<path d="M71.5219 97.5227L69.899 95.9384C69.3804 95.4323 68.5397 95.4323 68.0214 95.9384C67.5028 96.4445 67.5028 97.2651 68.0214 97.7712L69.6443 99.3553C69.9036 99.6085 70.2433 99.7351 70.5831 99.7351C70.9229 99.7351 71.2627 99.6085 71.5219 99.3553C72.0403 98.8494 72.0403 98.0289 71.5219 97.5227Z" fill="black"/>
<path d="M79.3235 92.466L77.7006 90.8818C77.182 90.3757 76.3414 90.3757 75.8231 90.8818C75.3045 91.3879 75.3045 92.2087 75.8231 92.7146L77.446 94.2987C77.7052 94.5517 78.045 94.6784 78.3848 94.6784C78.7245 94.6784 79.0643 94.5519 79.3235 94.2987C79.842 93.7928 79.842 92.972 79.3235 92.466Z" fill="black"/>
<path d="M117 63.769C117 59.234 115.191 54.9704 111.906 51.7635C105.125 45.1436 94.0908 45.1438 87.3098 51.7635L82.5362 56.4235C81.7901 56.1957 81.0268 56.0364 80.2564 55.9449C76.217 53.6632 71.0673 53.2862 66.8259 54.9199L62.6907 50.883C59.4057 47.6762 55.038 45.9102 50.3926 45.9102C45.7472 45.9102 41.379 47.6764 38.0943 50.883C34.8091 54.0898 33 58.3533 33 62.8883C33 67.4233 34.8091 71.6868 38.094 74.8936L49.2888 85.8219C49.0292 86.0033 48.781 86.2066 48.548 86.434L46.9251 88.0183C45.8075 89.1093 45.1918 90.5599 45.1918 92.1029C45.1918 93.6458 45.8075 95.0965 46.9251 96.1875C48.0427 97.2787 49.5288 97.8796 51.1094 97.8796C51.3136 97.8796 51.5164 97.869 51.7171 97.8491C51.5428 99.5183 52.1089 101.248 53.4161 102.524C54.5698 103.65 56.0852 104.213 57.6005 104.213C58.0663 104.213 58.5319 104.159 58.987 104.053C59.0052 105.57 59.6178 106.994 60.7185 108.068C61.8361 109.16 63.3222 109.76 64.9028 109.76C65.6145 109.76 66.3067 109.638 66.9549 109.404L67.8815 110.309C69.089 111.487 70.695 112.09 72.2821 112.09C73.602 112.09 74.9091 111.673 75.9622 110.824C77.2301 109.802 78.0102 108.309 78.1116 106.718C80.0243 107.343 82.181 107.043 83.7642 105.767C85.0209 104.754 85.7984 103.279 85.9106 101.704C87.8407 102.359 90.0306 102.068 91.6333 100.776C92.8917 99.7614 93.6695 98.2838 93.7802 96.7064C95.7078 97.3575 97.8926 97.065 99.4924 95.775C100.782 94.7349 101.567 93.2085 101.646 91.5867C101.723 90.0228 101.139 88.4909 100.044 87.3541L111.906 75.7746C115.191 72.5677 117 68.304 117 63.769ZM51.1097 95.2873C50.2384 95.2873 49.4192 94.9559 48.803 94.3545C47.531 93.1128 47.531 91.0926 48.803 89.8509L50.4259 88.2667C51.062 87.6457 51.8972 87.3355 52.7326 87.3355C53.5679 87.3355 54.4034 87.6459 55.0393 88.2667C56.3113 89.5084 56.3113 91.5286 55.0393 92.7703L53.4164 94.3544C52.8002 94.9561 51.981 95.2873 51.1097 95.2873ZM59.9074 100.691C58.6354 101.933 56.5659 101.933 55.294 100.691C54.022 99.4493 54.022 97.4291 55.294 96.1874C56.5659 94.9457 58.6354 94.9458 59.9074 96.1874C61.1794 97.4292 61.1794 99.4494 59.9074 100.691ZM67.21 106.235C66.5939 106.837 65.7746 107.168 64.9033 107.168C64.0319 107.168 63.2128 106.837 62.5965 106.235C61.9805 105.634 61.641 104.834 61.641 103.984C61.641 103.133 61.9805 102.333 62.5965 101.732C63.2126 101.13 64.0319 100.799 64.9033 100.799C65.7746 100.799 66.5938 101.13 67.21 101.732C67.8262 102.333 68.1655 103.133 68.1655 103.984C68.1653 104.834 67.826 105.634 67.21 106.235ZM97.8017 93.7761C96.5258 94.8046 94.5441 94.651 93.2895 93.4264L92.0612 92.2273L90.4384 90.6431C89.9198 90.1367 89.0792 90.137 88.5609 90.6431C88.0425 91.1492 88.0425 91.97 88.5609 92.4759L90.1838 94.06C90.8324 94.6931 91.1792 95.5693 91.1355 96.4644C91.0913 97.3716 90.6678 98.1928 89.9431 98.7771C88.6672 99.8059 86.6854 99.652 85.4309 98.4276L84.1923 97.2184L82.5694 95.6342C82.0509 95.1281 81.2101 95.1281 80.6918 95.6342C80.1734 96.1404 80.1734 96.9611 80.6918 97.467L82.3147 99.0513C82.9633 99.6844 83.3101 100.561 83.2664 101.456C83.2222 102.363 82.7987 103.184 82.074 103.768C80.7981 104.797 78.8164 104.643 77.5618 103.419L76.3906 102.275L74.7677 100.691C74.2492 100.185 73.4084 100.185 72.8902 100.691C72.3717 101.197 72.3717 102.018 72.8902 102.524L74.5121 104.107C74.5124 104.107 74.5126 104.107 74.5129 104.108C75.1614 104.741 75.5083 105.617 75.4646 106.512C75.4203 107.419 74.9969 108.24 74.2722 108.825C72.9963 109.854 71.0146 109.7 69.76 108.475L69.2122 107.941C70.2504 106.865 70.8212 105.468 70.8212 103.984C70.8212 102.44 70.2056 100.99 69.0878 99.899C67.9702 98.8078 66.4842 98.2069 64.9036 98.2069C64.4293 98.2069 63.9638 98.262 63.5143 98.3672C63.4959 96.9119 62.9206 95.4623 61.7856 94.3545C60.7876 93.3803 59.5189 92.8284 58.2136 92.6969C59.0807 90.6096 58.6487 88.1241 56.9172 86.434C55.5743 85.1231 53.7418 84.5768 51.9894 84.7918L39.9722 73.0606C37.1884 70.3434 35.6555 66.7309 35.6555 62.8885C35.6555 59.046 37.1884 55.4332 39.9718 52.7162C42.7552 49.9988 46.4559 48.5026 50.3923 48.5026C54.3286 48.5026 58.0294 49.9989 60.8127 52.7162L65.5868 57.3769C65.9848 57.7654 66.5902 57.8665 67.0979 57.6299C69.2665 56.6184 71.7945 56.2926 74.2432 56.6283C72.5647 57.2337 70.9902 58.19 69.644 59.5039L61.5301 67.4246C59.2229 69.6769 59.2229 73.3416 61.5301 75.594C62.6838 76.7202 64.1988 77.2833 65.7144 77.2833C67.2295 77.2833 68.7453 76.7201 69.8988 75.594L77.0738 68.5899L98.0423 89.0591C98.6908 89.6921 99.0376 90.5684 98.994 91.4636C98.9498 92.3702 98.5264 93.1916 97.8017 93.7761ZM98.1697 85.5176L78.9514 66.7569L79.6354 66.0892C80.1539 65.5829 80.1539 64.7623 79.6354 64.2564C79.1168 63.7503 78.2762 63.7503 77.7579 64.2564L68.0213 73.7612C66.7493 75.0029 64.6796 75.0027 63.4078 73.7612C62.1359 72.5195 62.1359 70.4993 63.4078 69.2576L71.5217 61.3369C75.4781 57.4749 81.9152 57.4749 85.8718 61.3369C86.3902 61.843 87.231 61.843 87.7493 61.3369C88.2679 60.8306 88.2679 60.01 87.7493 59.5041C86.9523 58.726 86.0749 58.0737 85.1438 57.5441L89.1873 53.5969C94.9331 47.988 104.282 47.9879 110.028 53.5969C115.774 59.2058 115.774 68.3325 110.028 73.9417L98.1697 85.5176Z" fill="#555759"/>
</svg>
